<mxfile host="app.diagrams.net" modified="2024-01-24T14:20:23.514Z" agent="Mozilla/5.0 (Macintosh; Intel Mac OS X 10_15_7) AppleWebKit/537.36 (KHTML, like Gecko) Chrome/120.0.0.0 Safari/537.36" etag="90kYXoNM6sdRCZEoJ6Ma" version="23.0.1" type="github">
  <diagram id="C5RBs43oDa-KdzZeNtuy" name="Page-1">
    <mxGraphModel dx="1386" dy="1042" grid="1" gridSize="10" guides="1" tooltips="1" connect="1" arrows="1" fold="1" page="1" pageScale="1" pageWidth="827" pageHeight="1169" background="#666600" math="0" shadow="0">
      <root>
        <mxCell id="WIyWlLk6GJQsqaUBKTNV-0" />
        <mxCell id="WIyWlLk6GJQsqaUBKTNV-1" parent="WIyWlLk6GJQsqaUBKTNV-0" />
        <mxCell id="WIyWlLk6GJQsqaUBKTNV-2" value="" style="rounded=0;html=1;jettySize=auto;orthogonalLoop=1;fontSize=11;endArrow=block;endFill=0;endSize=8;strokeWidth=1;shadow=0;labelBackgroundColor=none;edgeStyle=orthogonalEdgeStyle;exitX=1;exitY=0.5;exitDx=0;exitDy=0;" parent="WIyWlLk6GJQsqaUBKTNV-1" target="WIyWlLk6GJQsqaUBKTNV-6" edge="1">
          <mxGeometry relative="1" as="geometry">
            <mxPoint x="454" y="80" as="sourcePoint" />
          </mxGeometry>
        </mxCell>
        <mxCell id="UiqxbYFy-V-0rBatct67-37" value="" style="edgeStyle=orthogonalEdgeStyle;rounded=0;orthogonalLoop=1;jettySize=auto;html=1;" edge="1" parent="WIyWlLk6GJQsqaUBKTNV-1" source="WIyWlLk6GJQsqaUBKTNV-6" target="UiqxbYFy-V-0rBatct67-6">
          <mxGeometry relative="1" as="geometry" />
        </mxCell>
        <mxCell id="WIyWlLk6GJQsqaUBKTNV-6" value="Ask user for input?" style="rhombus;whiteSpace=wrap;html=1;shadow=0;fontFamily=Helvetica;fontSize=12;align=center;strokeWidth=1;spacing=6;spacingTop=-4;fillColor=#33FF33;strokeColor=#82B366;" parent="WIyWlLk6GJQsqaUBKTNV-1" vertex="1">
          <mxGeometry x="540" y="170" width="100" height="80" as="geometry" />
        </mxCell>
        <mxCell id="UiqxbYFy-V-0rBatct67-65" style="edgeStyle=orthogonalEdgeStyle;rounded=0;orthogonalLoop=1;jettySize=auto;html=1;entryX=0;entryY=0.5;entryDx=0;entryDy=0;" edge="1" parent="WIyWlLk6GJQsqaUBKTNV-1" source="UiqxbYFy-V-0rBatct67-5" target="UiqxbYFy-V-0rBatct67-14">
          <mxGeometry relative="1" as="geometry" />
        </mxCell>
        <mxCell id="UiqxbYFy-V-0rBatct67-5" value="&lt;font color=&quot;#ffffff&quot;&gt;Program Starts&lt;/font&gt;" style="ellipse;whiteSpace=wrap;html=1;fillColor=#FF8000;" vertex="1" parent="WIyWlLk6GJQsqaUBKTNV-1">
          <mxGeometry y="170" width="120" height="80" as="geometry" />
        </mxCell>
        <mxCell id="UiqxbYFy-V-0rBatct67-6" value="Checks for valid input&amp;nbsp;" style="shape=parallelogram;perimeter=parallelogramPerimeter;whiteSpace=wrap;html=1;fixedSize=1;fillColor=#FF0000;fontColor=#ffffff;strokeColor=#3A5431;" vertex="1" parent="WIyWlLk6GJQsqaUBKTNV-1">
          <mxGeometry x="710" y="180" width="120" height="60" as="geometry" />
        </mxCell>
        <mxCell id="UiqxbYFy-V-0rBatct67-36" value="" style="edgeStyle=orthogonalEdgeStyle;rounded=0;orthogonalLoop=1;jettySize=auto;html=1;" edge="1" parent="WIyWlLk6GJQsqaUBKTNV-1" target="WIyWlLk6GJQsqaUBKTNV-6">
          <mxGeometry relative="1" as="geometry">
            <mxPoint x="453.5" y="210" as="sourcePoint" />
          </mxGeometry>
        </mxCell>
        <mxCell id="UiqxbYFy-V-0rBatct67-33" style="edgeStyle=orthogonalEdgeStyle;rounded=0;orthogonalLoop=1;jettySize=auto;html=1;exitX=0.5;exitY=1;exitDx=0;exitDy=0;entryX=0.025;entryY=0.613;entryDx=0;entryDy=0;entryPerimeter=0;" edge="1" parent="WIyWlLk6GJQsqaUBKTNV-1" source="UiqxbYFy-V-0rBatct67-14" target="UiqxbYFy-V-0rBatct67-69">
          <mxGeometry relative="1" as="geometry">
            <mxPoint x="370" y="330" as="targetPoint" />
            <mxPoint x="250" y="290" as="sourcePoint" />
            <Array as="points">
              <mxPoint x="245" y="330" />
            </Array>
          </mxGeometry>
        </mxCell>
        <mxCell id="UiqxbYFy-V-0rBatct67-34" style="edgeStyle=orthogonalEdgeStyle;rounded=0;orthogonalLoop=1;jettySize=auto;html=1;entryX=0;entryY=0.5;entryDx=0;entryDy=0;" edge="1" parent="WIyWlLk6GJQsqaUBKTNV-1" source="UiqxbYFy-V-0rBatct67-14">
          <mxGeometry relative="1" as="geometry">
            <mxPoint x="374" y="80" as="targetPoint" />
            <Array as="points">
              <mxPoint x="241" y="80" />
            </Array>
          </mxGeometry>
        </mxCell>
        <mxCell id="UiqxbYFy-V-0rBatct67-35" style="edgeStyle=orthogonalEdgeStyle;rounded=0;orthogonalLoop=1;jettySize=auto;html=1;entryX=0;entryY=0.5;entryDx=0;entryDy=0;" edge="1" parent="WIyWlLk6GJQsqaUBKTNV-1" source="UiqxbYFy-V-0rBatct67-14">
          <mxGeometry relative="1" as="geometry">
            <mxPoint x="373.5" y="210" as="targetPoint" />
          </mxGeometry>
        </mxCell>
        <mxCell id="UiqxbYFy-V-0rBatct67-14" value="&lt;font color=&quot;#ffffff&quot;&gt;ASCII&amp;nbsp; Welcome Main Screen&lt;/font&gt;" style="whiteSpace=wrap;html=1;aspect=fixed;fillColor=#3399FF;strokeColor=#6c8ebf;" vertex="1" parent="WIyWlLk6GJQsqaUBKTNV-1">
          <mxGeometry x="205" y="170" width="80" height="80" as="geometry" />
        </mxCell>
        <mxCell id="UiqxbYFy-V-0rBatct67-45" style="edgeStyle=orthogonalEdgeStyle;rounded=0;orthogonalLoop=1;jettySize=auto;html=1;entryX=0.4;entryY=0;entryDx=0;entryDy=0;entryPerimeter=0;exitX=0.5;exitY=1;exitDx=0;exitDy=0;" edge="1" parent="WIyWlLk6GJQsqaUBKTNV-1">
          <mxGeometry relative="1" as="geometry">
            <mxPoint x="762" y="570" as="targetPoint" />
            <mxPoint x="570" y="450" as="sourcePoint" />
            <Array as="points">
              <mxPoint x="570" y="560" />
              <mxPoint x="762" y="560" />
            </Array>
          </mxGeometry>
        </mxCell>
        <mxCell id="UiqxbYFy-V-0rBatct67-54" style="edgeStyle=orthogonalEdgeStyle;rounded=0;orthogonalLoop=1;jettySize=auto;html=1;exitX=0.25;exitY=1;exitDx=0;exitDy=0;entryX=0.5;entryY=0;entryDx=0;entryDy=0;" edge="1" parent="WIyWlLk6GJQsqaUBKTNV-1">
          <mxGeometry relative="1" as="geometry">
            <mxPoint x="570" y="750" as="targetPoint" />
            <mxPoint x="550" y="450" as="sourcePoint" />
            <Array as="points">
              <mxPoint x="550" y="650" />
              <mxPoint x="570" y="650" />
            </Array>
          </mxGeometry>
        </mxCell>
        <mxCell id="UiqxbYFy-V-0rBatct67-42" style="edgeStyle=orthogonalEdgeStyle;rounded=0;orthogonalLoop=1;jettySize=auto;html=1;entryX=0.5;entryY=0;entryDx=0;entryDy=0;" edge="1" parent="WIyWlLk6GJQsqaUBKTNV-1">
          <mxGeometry relative="1" as="geometry">
            <mxPoint x="770" y="570" as="targetPoint" />
            <mxPoint x="950" y="450" as="sourcePoint" />
            <Array as="points">
              <mxPoint x="950" y="560" />
              <mxPoint x="770" y="560" />
            </Array>
          </mxGeometry>
        </mxCell>
        <mxCell id="UiqxbYFy-V-0rBatct67-47" style="edgeStyle=orthogonalEdgeStyle;rounded=0;orthogonalLoop=1;jettySize=auto;html=1;entryX=0;entryY=0.5;entryDx=0;entryDy=0;" edge="1" parent="WIyWlLk6GJQsqaUBKTNV-1">
          <mxGeometry relative="1" as="geometry">
            <mxPoint x="610" y="790" as="sourcePoint" />
            <mxPoint x="730" y="790" as="targetPoint" />
          </mxGeometry>
        </mxCell>
        <mxCell id="UiqxbYFy-V-0rBatct67-40" style="edgeStyle=orthogonalEdgeStyle;rounded=0;orthogonalLoop=1;jettySize=auto;html=1;entryX=1;entryY=0.5;entryDx=0;entryDy=0;" edge="1" parent="WIyWlLk6GJQsqaUBKTNV-1">
          <mxGeometry relative="1" as="geometry">
            <mxPoint x="730" y="410" as="sourcePoint" />
            <mxPoint x="610" y="410" as="targetPoint" />
          </mxGeometry>
        </mxCell>
        <mxCell id="UiqxbYFy-V-0rBatct67-41" style="edgeStyle=orthogonalEdgeStyle;rounded=0;orthogonalLoop=1;jettySize=auto;html=1;entryX=0;entryY=0.5;entryDx=0;entryDy=0;" edge="1" parent="WIyWlLk6GJQsqaUBKTNV-1">
          <mxGeometry relative="1" as="geometry">
            <mxPoint x="810" y="410" as="sourcePoint" />
            <mxPoint x="912" y="410" as="targetPoint" />
          </mxGeometry>
        </mxCell>
        <mxCell id="UiqxbYFy-V-0rBatct67-46" style="edgeStyle=orthogonalEdgeStyle;rounded=0;orthogonalLoop=1;jettySize=auto;html=1;entryX=0.42;entryY=0.063;entryDx=0;entryDy=0;entryPerimeter=0;" edge="1" parent="WIyWlLk6GJQsqaUBKTNV-1" target="UiqxbYFy-V-0rBatct67-73">
          <mxGeometry relative="1" as="geometry">
            <mxPoint x="770" y="370" as="targetPoint" />
            <mxPoint x="970" y="790" as="sourcePoint" />
            <Array as="points">
              <mxPoint x="1040" y="790" />
              <mxPoint x="1040" y="300" />
              <mxPoint x="770" y="300" />
            </Array>
          </mxGeometry>
        </mxCell>
        <mxCell id="UiqxbYFy-V-0rBatct67-49" value="" style="endArrow=classic;html=1;rounded=0;exitX=0;exitY=0.5;exitDx=0;exitDy=0;entryX=0.5;entryY=1;entryDx=0;entryDy=0;" edge="1" parent="WIyWlLk6GJQsqaUBKTNV-1">
          <mxGeometry relative="1" as="geometry">
            <mxPoint x="530" y="790" as="sourcePoint" />
            <mxPoint x="345" y="650" as="targetPoint" />
            <Array as="points">
              <mxPoint x="345" y="790" />
            </Array>
          </mxGeometry>
        </mxCell>
        <mxCell id="UiqxbYFy-V-0rBatct67-53" value="Yes" style="edgeLabel;html=1;align=center;verticalAlign=middle;resizable=0;points=[];" vertex="1" connectable="0" parent="UiqxbYFy-V-0rBatct67-49">
          <mxGeometry x="-0.1" y="-2" relative="1" as="geometry">
            <mxPoint as="offset" />
          </mxGeometry>
        </mxCell>
        <mxCell id="UiqxbYFy-V-0rBatct67-57" value="" style="endArrow=classic;html=1;rounded=0;exitX=0;exitY=0.5;exitDx=0;exitDy=0;entryX=1;entryY=0.5;entryDx=0;entryDy=0;" edge="1" parent="WIyWlLk6GJQsqaUBKTNV-1">
          <mxGeometry relative="1" as="geometry">
            <mxPoint x="730" y="610" as="sourcePoint" />
            <mxPoint x="405" y="610" as="targetPoint" />
            <Array as="points">
              <mxPoint x="545" y="610" />
            </Array>
          </mxGeometry>
        </mxCell>
        <mxCell id="UiqxbYFy-V-0rBatct67-58" value="&lt;font style=&quot;font-size: 12px;&quot;&gt;&lt;b&gt;Counter to Zero&lt;/b&gt;&lt;/font&gt;" style="edgeLabel;html=1;align=center;verticalAlign=middle;resizable=0;points=[];" vertex="1" connectable="0" parent="UiqxbYFy-V-0rBatct67-57">
          <mxGeometry x="-0.1" y="-2" relative="1" as="geometry">
            <mxPoint as="offset" />
          </mxGeometry>
        </mxCell>
        <mxCell id="UiqxbYFy-V-0rBatct67-59" value="" style="endArrow=classic;html=1;rounded=0;exitX=0.5;exitY=1;exitDx=0;exitDy=0;entryX=0.33;entryY=0.206;entryDx=0;entryDy=0;entryPerimeter=0;" edge="1" parent="WIyWlLk6GJQsqaUBKTNV-1" source="UiqxbYFy-V-0rBatct67-6" target="UiqxbYFy-V-0rBatct67-73">
          <mxGeometry relative="1" as="geometry">
            <mxPoint x="470" y="530" as="sourcePoint" />
            <mxPoint x="753.5294117647059" y="386.47058823529414" as="targetPoint" />
            <Array as="points">
              <mxPoint x="700" y="310" />
            </Array>
          </mxGeometry>
        </mxCell>
        <mxCell id="UiqxbYFy-V-0rBatct67-60" value="&lt;font style=&quot;font-size: 12px;&quot;&gt;&lt;b&gt;Valid&lt;/b&gt;&lt;/font&gt;" style="edgeLabel;resizable=0;html=1;align=center;verticalAlign=middle;" connectable="0" vertex="1" parent="UiqxbYFy-V-0rBatct67-59">
          <mxGeometry relative="1" as="geometry" />
        </mxCell>
        <mxCell id="UiqxbYFy-V-0rBatct67-62" value="" style="endArrow=classic;html=1;rounded=0;entryX=0.5;entryY=1;entryDx=0;entryDy=0;exitX=0;exitY=1;exitDx=0;exitDy=0;" edge="1" parent="WIyWlLk6GJQsqaUBKTNV-1" source="UiqxbYFy-V-0rBatct67-6" target="WIyWlLk6GJQsqaUBKTNV-6">
          <mxGeometry relative="1" as="geometry">
            <mxPoint x="590" y="300" as="sourcePoint" />
            <mxPoint x="630" y="280" as="targetPoint" />
            <Array as="points">
              <mxPoint x="700" y="290" />
              <mxPoint x="650" y="290" />
              <mxPoint x="590" y="290" />
            </Array>
          </mxGeometry>
        </mxCell>
        <mxCell id="UiqxbYFy-V-0rBatct67-63" value="&lt;font style=&quot;font-size: 12px;&quot;&gt;&lt;b&gt;Invalid&lt;/b&gt;&lt;/font&gt;" style="edgeLabel;resizable=0;html=1;align=center;verticalAlign=middle;" connectable="0" vertex="1" parent="UiqxbYFy-V-0rBatct67-62">
          <mxGeometry relative="1" as="geometry" />
        </mxCell>
        <mxCell id="UiqxbYFy-V-0rBatct67-67" value="&lt;font color=&quot;#ffffff&quot;&gt;Generate Board from class&lt;/font&gt;" style="whiteSpace=wrap;html=1;aspect=fixed;fillColor=#3399FF;strokeColor=#6c8ebf;" vertex="1" parent="WIyWlLk6GJQsqaUBKTNV-1">
          <mxGeometry x="374" y="40" width="80" height="80" as="geometry" />
        </mxCell>
        <mxCell id="UiqxbYFy-V-0rBatct67-68" value="&lt;font color=&quot;#ffffff&quot;&gt;Generate Fleet from class&lt;/font&gt;" style="whiteSpace=wrap;html=1;aspect=fixed;fillColor=#3399FF;strokeColor=#6c8ebf;" vertex="1" parent="WIyWlLk6GJQsqaUBKTNV-1">
          <mxGeometry x="374" y="160" width="80" height="80" as="geometry" />
        </mxCell>
        <mxCell id="UiqxbYFy-V-0rBatct67-70" style="edgeStyle=orthogonalEdgeStyle;rounded=0;orthogonalLoop=1;jettySize=auto;html=1;" edge="1" parent="WIyWlLk6GJQsqaUBKTNV-1" source="UiqxbYFy-V-0rBatct67-69" target="WIyWlLk6GJQsqaUBKTNV-6">
          <mxGeometry relative="1" as="geometry">
            <mxPoint x="530" y="250" as="targetPoint" />
            <Array as="points">
              <mxPoint x="550" y="320" />
            </Array>
          </mxGeometry>
        </mxCell>
        <mxCell id="UiqxbYFy-V-0rBatct67-69" value="&lt;font color=&quot;#ffffff&quot;&gt;Generate Fleet from class&lt;/font&gt;" style="whiteSpace=wrap;html=1;aspect=fixed;fillColor=#3399FF;strokeColor=#6c8ebf;" vertex="1" parent="WIyWlLk6GJQsqaUBKTNV-1">
          <mxGeometry x="374" y="280" width="80" height="80" as="geometry" />
        </mxCell>
        <mxCell id="UiqxbYFy-V-0rBatct67-71" value="&lt;font color=&quot;#ffffff&quot;&gt;Place &#39;X&#39; on selected co_ordinate&lt;/font&gt;" style="whiteSpace=wrap;html=1;aspect=fixed;fillColor=#3399FF;strokeColor=#6c8ebf;" vertex="1" parent="WIyWlLk6GJQsqaUBKTNV-1">
          <mxGeometry x="530" y="370" width="80" height="80" as="geometry" />
        </mxCell>
        <mxCell id="UiqxbYFy-V-0rBatct67-72" value="&lt;font color=&quot;#ffffff&quot;&gt;Ask user for input?&lt;/font&gt;" style="rhombus;whiteSpace=wrap;html=1;shadow=0;fontFamily=Helvetica;fontSize=12;align=center;strokeWidth=1;spacing=6;spacingTop=-4;fillColor=#006600;strokeColor=#996185;gradientColor=#97D077;" vertex="1" parent="WIyWlLk6GJQsqaUBKTNV-1">
          <mxGeometry x="540" y="170" width="100" height="80" as="geometry" />
        </mxCell>
        <mxCell id="UiqxbYFy-V-0rBatct67-73" value="&lt;font color=&quot;#ffffff&quot;&gt;Ask user for input?&lt;/font&gt;" style="rhombus;whiteSpace=wrap;html=1;shadow=0;fontFamily=Helvetica;fontSize=12;align=center;strokeWidth=1;spacing=6;spacingTop=-4;fillColor=#006600;strokeColor=#82b366;gradientColor=#97d077;" vertex="1" parent="WIyWlLk6GJQsqaUBKTNV-1">
          <mxGeometry x="727" y="370" width="100" height="80" as="geometry" />
        </mxCell>
        <mxCell id="UiqxbYFy-V-0rBatct67-74" value="&lt;font color=&quot;#ffffff&quot;&gt;Place on selected co_ordiate&lt;/font&gt;" style="whiteSpace=wrap;html=1;aspect=fixed;fillColor=#3399FF;strokeColor=#6c8ebf;" vertex="1" parent="WIyWlLk6GJQsqaUBKTNV-1">
          <mxGeometry x="910" y="370" width="80" height="80" as="geometry" />
        </mxCell>
        <mxCell id="UiqxbYFy-V-0rBatct67-75" value="&lt;font color=&quot;#ffffff&quot;&gt;Game Over&lt;/font&gt;" style="ellipse;whiteSpace=wrap;html=1;fillColor=#FF8000;" vertex="1" parent="WIyWlLk6GJQsqaUBKTNV-1">
          <mxGeometry x="285" y="570" width="120" height="80" as="geometry" />
        </mxCell>
        <mxCell id="UiqxbYFy-V-0rBatct67-76" value="&lt;font color=&quot;#ffffff&quot;&gt;Decrease missile counter&lt;/font&gt;" style="whiteSpace=wrap;html=1;aspect=fixed;fillColor=#3399FF;strokeColor=#6c8ebf;" vertex="1" parent="WIyWlLk6GJQsqaUBKTNV-1">
          <mxGeometry x="730" y="570" width="80" height="80" as="geometry" />
        </mxCell>
        <mxCell id="UiqxbYFy-V-0rBatct67-77" value="&lt;font color=&quot;#ffffff&quot;&gt;Checks if all ships sunk?&lt;/font&gt;" style="rhombus;whiteSpace=wrap;html=1;shadow=0;fontFamily=Helvetica;fontSize=12;align=center;strokeWidth=1;spacing=6;spacingTop=-4;fillColor=#006600;strokeColor=#996185;gradientColor=#97D077;" vertex="1" parent="WIyWlLk6GJQsqaUBKTNV-1">
          <mxGeometry x="520" y="750" width="100" height="80" as="geometry" />
        </mxCell>
        <mxCell id="UiqxbYFy-V-0rBatct67-78" value="&lt;font color=&quot;#ffffff&quot;&gt;Generate Computer shot&lt;/font&gt;" style="whiteSpace=wrap;html=1;aspect=fixed;fillColor=#3399FF;strokeColor=#6c8ebf;" vertex="1" parent="WIyWlLk6GJQsqaUBKTNV-1">
          <mxGeometry x="727" y="750" width="80" height="80" as="geometry" />
        </mxCell>
      </root>
    </mxGraphModel>
  </diagram>
</mxfile>
